<mxfile host="app.diagrams.net" modified="2022-11-04T07:57:16.563Z" agent="5.0 (Windows NT 10.0; Win64; x64) AppleWebKit/537.36 (KHTML, like Gecko) Chrome/100.0.4896.147 Safari/537.36" etag="0GjWZYyFB_Z1OLOEmO_8" version="20.5.1" type="github">
  <diagram name="推导原理" id="5d7acffa-a066-3a61-03fe-96351882024d">
    <mxGraphModel dx="2525" dy="1868" grid="1" gridSize="10" guides="1" tooltips="1" connect="1" arrows="1" fold="1" page="1" pageScale="1" pageWidth="1100" pageHeight="850" background="#ffffff" math="0" shadow="0">
      <root>
        <mxCell id="0" />
        <mxCell id="1" parent="0" />
        <mxCell id="6CtU652WKUI4UOQ74HAb-1" value="条件对象" style="rounded=1;whiteSpace=wrap;html=1;" vertex="1" parent="1">
          <mxGeometry x="40" y="290" width="120" height="60" as="geometry" />
        </mxCell>
        <mxCell id="6CtU652WKUI4UOQ74HAb-2" value="ER表字段" style="rounded=1;whiteSpace=wrap;html=1;" vertex="1" parent="1">
          <mxGeometry x="590" y="290" width="120" height="60" as="geometry" />
        </mxCell>
        <mxCell id="6CtU652WKUI4UOQ74HAb-3" value="ER表" style="rounded=1;whiteSpace=wrap;html=1;" vertex="1" parent="1">
          <mxGeometry x="760" y="290" width="120" height="60" as="geometry" />
        </mxCell>
        <mxCell id="6CtU652WKUI4UOQ74HAb-4" value="赋值对象" style="rounded=1;whiteSpace=wrap;html=1;" vertex="1" parent="1">
          <mxGeometry x="40" y="365" width="120" height="60" as="geometry" />
        </mxCell>
        <mxCell id="6CtU652WKUI4UOQ74HAb-5" value="排序分页声明" style="rounded=1;whiteSpace=wrap;html=1;" vertex="1" parent="1">
          <mxGeometry x="40" y="440" width="120" height="60" as="geometry" />
        </mxCell>
        <mxCell id="6CtU652WKUI4UOQ74HAb-6" value="主意图&lt;br&gt;增/删/改/查" style="rounded=1;whiteSpace=wrap;html=1;" vertex="1" parent="1">
          <mxGeometry x="40" y="520" width="120" height="60" as="geometry" />
        </mxCell>
        <mxCell id="6CtU652WKUI4UOQ74HAb-7" value="API" style="shape=process;whiteSpace=wrap;html=1;backgroundOutline=1;" vertex="1" parent="1">
          <mxGeometry x="-240" y="350" width="120" height="60" as="geometry" />
        </mxCell>
        <mxCell id="6CtU652WKUI4UOQ74HAb-8" value="" style="shape=singleArrow;whiteSpace=wrap;html=1;arrowWidth=0.4;arrowSize=0.4;" vertex="1" parent="1">
          <mxGeometry x="-100" y="350" width="80" height="60" as="geometry" />
        </mxCell>
        <mxCell id="6CtU652WKUI4UOQ74HAb-10" value="提取类标注元信息" style="shape=singleArrow;whiteSpace=wrap;html=1;arrowWidth=0.4;arrowSize=0.4;" vertex="1" parent="1">
          <mxGeometry x="220" y="240" width="130" height="60" as="geometry" />
        </mxCell>
        <mxCell id="6CtU652WKUI4UOQ74HAb-11" value="ER字段绑定标注" style="rounded=1;whiteSpace=wrap;html=1;" vertex="1" parent="1">
          <mxGeometry x="380" y="240" width="120" height="60" as="geometry" />
        </mxCell>
        <mxCell id="6CtU652WKUI4UOQ74HAb-12" value="ER设计文件" style="shape=process;whiteSpace=wrap;html=1;backgroundOutline=1;" vertex="1" parent="1">
          <mxGeometry x="730" y="-130" width="120" height="60" as="geometry" />
        </mxCell>
        <mxCell id="6CtU652WKUI4UOQ74HAb-13" value="ER表定义" style="rounded=1;whiteSpace=wrap;html=1;" vertex="1" parent="1">
          <mxGeometry x="570" y="60" width="120" height="60" as="geometry" />
        </mxCell>
        <mxCell id="6CtU652WKUI4UOQ74HAb-14" value="外键关系" style="rounded=1;whiteSpace=wrap;html=1;" vertex="1" parent="1">
          <mxGeometry x="730" y="60" width="120" height="60" as="geometry" />
        </mxCell>
        <mxCell id="6CtU652WKUI4UOQ74HAb-15" value="逻辑主键声明" style="rounded=1;whiteSpace=wrap;html=1;" vertex="1" parent="1">
          <mxGeometry x="890" y="60" width="120" height="60" as="geometry" />
        </mxCell>
        <mxCell id="6CtU652WKUI4UOQ74HAb-18" value="SELEC字段" style="shape=parallelogram;perimeter=parallelogramPerimeter;whiteSpace=wrap;html=1;fixedSize=1;" vertex="1" parent="1">
          <mxGeometry x="1110" y="290" width="120" height="60" as="geometry" />
        </mxCell>
        <mxCell id="6CtU652WKUI4UOQ74HAb-19" value="查询结果类" style="rounded=1;whiteSpace=wrap;html=1;" vertex="1" parent="1">
          <mxGeometry x="40" y="210" width="120" height="60" as="geometry" />
        </mxCell>
        <mxCell id="6CtU652WKUI4UOQ74HAb-20" value="驱动表" style="shape=parallelogram;perimeter=parallelogramPerimeter;whiteSpace=wrap;html=1;fixedSize=1;" vertex="1" parent="1">
          <mxGeometry x="1110" y="400" width="120" height="60" as="geometry" />
        </mxCell>
        <mxCell id="6CtU652WKUI4UOQ74HAb-21" value="JOIN表于ON条件" style="shape=parallelogram;perimeter=parallelogramPerimeter;whiteSpace=wrap;html=1;fixedSize=1;" vertex="1" parent="1">
          <mxGeometry x="1110" y="520" width="120" height="60" as="geometry" />
        </mxCell>
        <mxCell id="6CtU652WKUI4UOQ74HAb-22" value="WHERE条件" style="shape=parallelogram;perimeter=parallelogramPerimeter;whiteSpace=wrap;html=1;fixedSize=1;" vertex="1" parent="1">
          <mxGeometry x="1110" y="640" width="120" height="60" as="geometry" />
        </mxCell>
        <mxCell id="6CtU652WKUI4UOQ74HAb-23" value="INSERT字段" style="shape=parallelogram;perimeter=parallelogramPerimeter;whiteSpace=wrap;html=1;fixedSize=1;" vertex="1" parent="1">
          <mxGeometry x="1280" y="290" width="120" height="60" as="geometry" />
        </mxCell>
        <mxCell id="6CtU652WKUI4UOQ74HAb-24" value="UPDATE/INSERT/DELETE主表" style="shape=parallelogram;perimeter=parallelogramPerimeter;whiteSpace=wrap;html=1;fixedSize=1;" vertex="1" parent="1">
          <mxGeometry x="1280" y="520" width="120" height="60" as="geometry" />
        </mxCell>
        <mxCell id="6CtU652WKUI4UOQ74HAb-25" value="ORDER" style="shape=parallelogram;perimeter=parallelogramPerimeter;whiteSpace=wrap;html=1;fixedSize=1;" vertex="1" parent="1">
          <mxGeometry x="1110" y="750" width="120" height="60" as="geometry" />
        </mxCell>
        <mxCell id="6CtU652WKUI4UOQ74HAb-26" value="GROUP BY" style="shape=parallelogram;perimeter=parallelogramPerimeter;whiteSpace=wrap;html=1;fixedSize=1;" vertex="1" parent="1">
          <mxGeometry x="1280" y="750" width="120" height="60" as="geometry" />
        </mxCell>
        <mxCell id="6CtU652WKUI4UOQ74HAb-27" value="赋值关系" style="shape=parallelogram;perimeter=parallelogramPerimeter;whiteSpace=wrap;html=1;fixedSize=1;" vertex="1" parent="1">
          <mxGeometry x="1280" y="400" width="120" height="60" as="geometry" />
        </mxCell>
        <mxCell id="6CtU652WKUI4UOQ74HAb-28" value="字段映射" style="rounded=1;whiteSpace=wrap;html=1;" vertex="1" parent="1">
          <mxGeometry x="590" y="395" width="120" height="60" as="geometry" />
        </mxCell>
        <mxCell id="6CtU652WKUI4UOQ74HAb-29" value="OrderBy声明" style="rounded=1;whiteSpace=wrap;html=1;" vertex="1" parent="1">
          <mxGeometry x="170" y="770" width="120" height="60" as="geometry" />
        </mxCell>
        <mxCell id="6CtU652WKUI4UOQ74HAb-31" value="OrderBy表达式" style="rounded=1;whiteSpace=wrap;html=1;" vertex="1" parent="1">
          <mxGeometry x="590" y="590" width="120" height="60" as="geometry" />
        </mxCell>
        <mxCell id="6CtU652WKUI4UOQ74HAb-32" value="GroupBy表达式" style="rounded=1;whiteSpace=wrap;html=1;" vertex="1" parent="1">
          <mxGeometry x="760" y="500" width="120" height="60" as="geometry" />
        </mxCell>
        <mxCell id="6CtU652WKUI4UOQ74HAb-33" value="赋值表达式" style="rounded=1;whiteSpace=wrap;html=1;" vertex="1" parent="1">
          <mxGeometry x="590" y="500" width="120" height="60" as="geometry" />
        </mxCell>
        <mxCell id="6CtU652WKUI4UOQ74HAb-35" value="隐式声明部分" style="swimlane;" vertex="1" parent="1">
          <mxGeometry y="150" width="200" height="460" as="geometry" />
        </mxCell>
        <mxCell id="6CtU652WKUI4UOQ74HAb-37" value="显式声明部分" style="swimlane;" vertex="1" parent="1">
          <mxGeometry x="340" y="150" width="200" height="350" as="geometry" />
        </mxCell>
        <mxCell id="6CtU652WKUI4UOQ74HAb-38" value="ER表绑定标注" style="rounded=1;whiteSpace=wrap;html=1;" vertex="1" parent="6CtU652WKUI4UOQ74HAb-37">
          <mxGeometry x="40" y="245" width="120" height="60" as="geometry" />
        </mxCell>
        <mxCell id="6CtU652WKUI4UOQ74HAb-36" value="ER字段映射标注" style="rounded=1;whiteSpace=wrap;html=1;" vertex="1" parent="6CtU652WKUI4UOQ74HAb-37">
          <mxGeometry x="40" y="170" width="120" height="60" as="geometry" />
        </mxCell>
      </root>
    </mxGraphModel>
  </diagram>
</mxfile>
